# xmcd
#
# Track frame offsets: 
#        150
#        10689
#        20721
#        37160
#        48574
#        67254
#        81540
#        98106
#        112831
#        130218
#        140817
#        151001
#        163938
#        178282
#        190632
#        210182
#        223546
#        236156
#        257303
#
# Disc length: 3583 seconds
#
# Revision: 0
# Processed by: cddbd v1.5.2PL0 Copyright (c) Steve Scherf et al.
# Submitted via: ExactAudioCopy v0.99pb4
#
DISCID=0f0dfd13
DTITLE=Top Topham - The Complete Blue Horizon Sessions
DYEAR=2008
DGENRE=Blues
TTITLE0=Sawbuck
TTITLE1=Mini Minor Mo
TTITLE2=Hop House
TTITLE3=Ridin The Blinds
TTITLE4=Hot Ginger
TTITLE5=Funks Elegy
TTITLE6=Ascension Heights
TTITLE7=Tuxedo Junction
TTITLE8=Globetrottin
TTITLE9=Spider Drag
TTITLE10=Mean Old Pullman
TTITLE11=How Sweet It Is
TTITLE12=Christmas Cracker
TTITLE13=Cracking Up Over Christmas
TTITLE14=Hop House
TTITLE15=Heart Of Stone
TTITLE16=You Gonna Ruin Me Baby
TTITLE17=Long And Lonely Year
TTITLE18=Anything For You
EXTD=
EXTT0=
EXTT1=
EXTT2=
EXTT3=
EXTT4=
EXTT5=
EXTT6=
EXTT7=
EXTT8=
EXTT9=
EXTT10=
EXTT11=
EXTT12=
EXTT13=
EXTT14=
EXTT15=
EXTT16=
EXTT17=
EXTT18=
PLAYORDER=
